ply
format ascii 1.0
comment Created by Blender 2.79 (sub 0) - www.blender.org, source file: 'animations.blend'
element vertex 48
property float x
property float y
property float z
property float nx
property float ny
property float nz
property float s
property float t
element face 15
property list uchar uint vertex_indices
end_header
0.115311 0.306403 -103.472527 1.000000 0.000000 0.000000 0.711144 0.206970
0.115311 0.446403 -103.472527 1.000000 0.000000 0.000000 0.711144 0.000000
0.115311 0.446403 -103.396400 1.000000 0.000000 0.000000 0.815621 0.000000
0.115311 0.306403 -103.396400 1.000000 0.000000 0.000000 0.815621 0.206970
0.115311 0.306403 -103.396400 -0.000000 0.000000 1.000000 0.000000 0.206970
0.115311 0.446403 -103.396400 -0.000000 0.000000 1.000000 0.000000 0.000000
-0.114685 0.446403 -103.396400 -0.000000 0.000000 1.000000 0.315621 0.000000
-0.114685 0.306403 -103.396400 -0.000000 0.000000 1.000000 0.315621 0.206970
-0.114685 0.306403 -103.396400 -1.000000 0.000000 0.000000 1.000000 0.453011
-0.114685 0.446403 -103.396400 -1.000000 0.000000 0.000000 1.000000 0.659981
-0.114685 0.446403 -103.472527 -1.000000 0.000000 0.000000 0.895523 0.659981
-0.114685 0.306403 -103.472527 -1.000000 0.000000 0.000000 0.895523 0.453011
-0.114685 0.446403 -103.396400 0.000000 1.000000 -0.000000 0.184379 0.659985
0.115311 0.446403 -103.396400 0.000000 1.000000 -0.000000 0.184379 1.000000
0.115311 0.446403 -103.472527 0.000000 1.000000 -0.000000 0.079902 1.000000
-0.114685 0.446403 -103.472527 0.000000 1.000000 -0.000000 0.079902 0.659985
-0.114685 -0.000027 -103.396400 0.000000 -0.000000 1.000000 0.315621 0.659981
0.115311 -0.000027 -103.396400 0.000000 -0.000000 1.000000 0.000000 0.659981
-0.114685 -0.000027 -103.472527 -1.000000 0.000000 0.000000 0.895523 0.000000
-0.114685 -0.000027 -103.396400 -1.000000 0.000000 0.000000 1.000000 0.000000
0.115311 -0.000027 -103.396400 1.000000 -0.000000 0.000000 0.815621 0.659981
0.115311 -0.000027 -103.472527 1.000000 -0.000000 0.000000 0.711144 0.659981
0.115308 0.446403 -103.530754 0.000000 1.000000 -0.000000 0.000000 0.999996
-0.114687 0.446403 -103.530754 0.000000 1.000000 -0.000000 0.000000 0.659981
-0.114685 0.306403 -103.472527 -1.000000 0.000000 0.000045 0.895523 0.453011
-0.114685 0.446403 -103.472527 -1.000000 0.000000 0.000045 0.895523 0.659981
-0.114687 0.446403 -103.530754 -1.000000 0.000000 0.000045 0.815621 0.659981
0.115311 0.446403 -103.472527 1.000000 0.000000 -0.000045 0.711144 0.000000
0.115311 0.306403 -103.472527 1.000000 0.000000 -0.000045 0.711144 0.206970
0.115308 0.446403 -103.530754 1.000000 0.000000 -0.000045 0.631242 0.000000
-0.114685 0.446403 -103.472527 -0.000000 -1.000000 0.000000 0.507742 0.453015
-0.114687 0.446403 -103.530754 -0.000000 -1.000000 0.000000 0.587644 0.453011
0.115308 0.446403 -103.530754 -0.000000 -1.000000 0.000000 0.587644 0.793026
0.115311 0.446403 -103.472527 -0.000000 -1.000000 0.000000 0.507742 0.793030
-0.114685 0.306403 -103.472527 1.000000 0.000000 -0.000045 0.184379 0.659981
-0.114687 0.446403 -103.530754 1.000000 0.000000 -0.000045 0.264280 0.866951
-0.114685 0.446403 -103.472527 1.000000 0.000000 -0.000045 0.184379 0.866951
0.115311 0.446403 -103.472527 -1.000000 0.000000 0.000045 0.631242 0.693035
0.115308 0.446403 -103.530754 -1.000000 0.000000 0.000045 0.705018 0.659981
0.115311 0.306403 -103.472527 -1.000000 0.000000 0.000045 0.705018 0.884137
-0.114680 0.306403 -103.472557 -0.000000 0.000000 -1.000000 0.315621 0.453011
-0.114680 0.446403 -103.472557 -0.000000 0.000000 -1.000000 0.507742 0.453011
0.115316 0.446403 -103.472557 -0.000000 0.000000 -1.000000 0.507742 0.793026
0.115316 0.306403 -103.472557 -0.000000 0.000000 -1.000000 0.315621 0.793027
-0.114680 0.306403 -103.472557 0.000000 0.000000 -1.000000 0.315621 0.000000
0.115316 0.306403 -103.472557 0.000000 0.000000 -1.000000 0.631242 0.000000
0.115316 -0.000027 -103.472557 0.000000 0.000000 -1.000000 0.631242 0.453011
-0.114680 -0.000027 -103.472557 0.000000 0.000000 -1.000000 0.315621 0.453011
4 0 1 2 3
4 4 5 6 7
4 8 9 10 11
4 12 13 14 15
4 4 7 16 17
4 8 11 18 19
4 0 3 20 21
4 15 14 22 23
3 24 25 26
3 27 28 29
4 30 31 32 33
3 34 35 36
3 37 38 39
4 40 41 42 43
4 44 45 46 47
