ply
format ascii 1.0
comment Created by Blender 2.79 (sub 0) - www.blender.org, source file: 'animations.blend'
element vertex 48
property float x
property float y
property float z
property float nx
property float ny
property float nz
property float s
property float t
element face 15
property list uchar uint vertex_indices
end_header
-173.504272 0.306403 -174.007523 0.715770 0.000000 -0.698336 0.711144 0.206970
-173.504272 0.446403 -174.007523 0.715770 0.000000 -0.698336 0.711144 0.000000
-173.451096 0.446403 -173.953018 0.715770 0.000000 -0.698336 0.815621 0.000000
-173.451096 0.306403 -173.953018 0.715770 0.000000 -0.698336 0.815621 0.206970
-173.451096 0.306403 -173.953018 0.698329 0.000000 0.715777 0.000000 0.206970
-173.451096 0.446403 -173.953018 0.698329 0.000000 0.715777 0.000000 0.000000
-173.615723 0.446403 -173.792404 0.698329 0.000000 0.715777 0.315621 0.000000
-173.615723 0.306403 -173.792404 0.698329 0.000000 0.715777 0.315621 0.206970
-173.615723 0.306403 -173.792404 -0.715772 0.000000 0.698334 1.000000 0.453011
-173.615723 0.446403 -173.792404 -0.715772 0.000000 0.698334 1.000000 0.659981
-173.668884 0.446403 -173.846893 -0.715772 0.000000 0.698334 0.895523 0.659981
-173.668884 0.306403 -173.846893 -0.715772 0.000000 0.698334 0.895523 0.453011
-173.615723 0.446403 -173.792404 -0.000000 1.000000 -0.000000 0.184379 0.659985
-173.451096 0.446403 -173.953018 -0.000000 1.000000 -0.000000 0.184379 1.000000
-173.504272 0.446403 -174.007523 -0.000000 1.000000 -0.000000 0.079902 1.000000
-173.668884 0.446403 -173.846893 -0.000000 1.000000 -0.000000 0.079902 0.659985
-173.615723 -0.000027 -173.792404 0.698329 0.000000 0.715777 0.315621 0.659981
-173.451096 -0.000027 -173.953018 0.698329 0.000000 0.715777 0.000000 0.659981
-173.668884 -0.000027 -173.846893 -0.715772 0.000000 0.698334 0.895523 0.000000
-173.615723 -0.000027 -173.792404 -0.715772 0.000000 0.698334 1.000000 0.000000
-173.451096 -0.000027 -173.953018 0.715770 0.000000 -0.698336 0.815621 0.659981
-173.504272 -0.000027 -174.007523 0.715770 0.000000 -0.698336 0.711144 0.659981
-173.544937 0.446403 -174.049194 -0.000000 1.000000 -0.000000 0.000000 0.999996
-173.709549 0.446403 -173.888565 -0.000000 1.000000 -0.000000 0.000000 0.659981
-173.668884 0.306403 -173.846893 -0.715702 0.000000 0.698406 0.895523 0.453011
-173.668884 0.446403 -173.846893 -0.715702 0.000000 0.698406 0.895523 0.659981
-173.709549 0.446403 -173.888565 -0.715702 0.000000 0.698406 0.815621 0.659981
-173.504272 0.446403 -174.007523 0.715702 0.000000 -0.698406 0.711144 0.000000
-173.504272 0.306403 -174.007523 0.715702 0.000000 -0.698406 0.711144 0.206970
-173.544937 0.446403 -174.049194 0.715702 0.000000 -0.698406 0.631242 0.000000
-173.668884 0.446403 -173.846893 0.000000 -1.000000 0.000000 0.507742 0.453015
-173.709549 0.446403 -173.888565 0.000000 -1.000000 0.000000 0.587644 0.453011
-173.544937 0.446403 -174.049194 0.000000 -1.000000 0.000000 0.587644 0.793026
-173.504272 0.446403 -174.007523 0.000000 -1.000000 0.000000 0.507742 0.793030
-173.668884 0.306403 -173.846893 0.715702 0.000000 -0.698406 0.184379 0.659981
-173.709549 0.446403 -173.888565 0.715702 0.000000 -0.698406 0.264280 0.866951
-173.668884 0.446403 -173.846893 0.715702 0.000000 -0.698406 0.184379 0.866951
-173.504272 0.446403 -174.007523 -0.715702 0.000000 0.698406 0.631242 0.693035
-173.544937 0.446403 -174.049194 -0.715702 0.000000 0.698406 0.705018 0.659981
-173.504272 0.306403 -174.007523 -0.715702 0.000000 0.698406 0.705018 0.884137
-173.668900 0.306403 -173.846924 -0.698362 0.000000 -0.715745 0.315621 0.453011
-173.668900 0.446403 -173.846924 -0.698362 0.000000 -0.715745 0.507742 0.453011
-173.504288 0.446403 -174.007538 -0.698362 0.000000 -0.715745 0.507742 0.793026
-173.504288 0.306403 -174.007538 -0.698362 0.000000 -0.715745 0.315621 0.793027
-173.668900 0.306403 -173.846924 -0.698362 0.000000 -0.715745 0.315621 0.000000
-173.504288 0.306403 -174.007538 -0.698362 0.000000 -0.715745 0.631242 0.000000
-173.504288 -0.000027 -174.007538 -0.698362 0.000000 -0.715745 0.631242 0.453011
-173.668900 -0.000027 -173.846924 -0.698362 0.000000 -0.715745 0.315621 0.453011
4 0 1 2 3
4 4 5 6 7
4 8 9 10 11
4 12 13 14 15
4 4 7 16 17
4 8 11 18 19
4 0 3 20 21
4 15 14 22 23
3 24 25 26
3 27 28 29
4 30 31 32 33
3 34 35 36
3 37 38 39
4 40 41 42 43
4 44 45 46 47
