ply
format ascii 1.0
comment Created by Blender 2.79 (sub 0) - www.blender.org, source file: 'animations.blend'
element vertex 66
property float x
property float y
property float z
property float nx
property float ny
property float nz
element face 28
property list uchar uint vertex_indices
end_header
-170.915283 1.439762 -170.223236 -0.706640 0.000000 -0.707574
-170.984619 2.033762 -170.153992 -0.706640 0.000000 -0.707574
-170.915283 2.121762 -170.223236 -0.706640 0.000000 -0.707574
-170.984619 2.033762 -170.153992 -0.706614 -0.000041 -0.707599
-171.189117 2.121762 -169.949783 -0.706614 -0.000041 -0.707599
-170.915283 2.121762 -170.223236 -0.706614 -0.000041 -0.707599
-170.984619 2.033762 -170.153992 -0.706605 -0.000000 -0.707608
-171.189117 2.033762 -169.949783 -0.706605 -0.000000 -0.707608
-171.189117 2.121762 -169.949783 -0.706605 -0.000000 -0.707608
-170.984619 1.827762 -170.153992 -0.706640 -0.000000 -0.707574
-170.984619 1.739762 -170.153992 -0.706640 -0.000000 -0.707574
-170.984619 1.739762 -170.153992 -0.706587 0.000000 -0.707626
-171.182053 1.827762 -169.956848 -0.706587 0.000000 -0.707626
-170.984619 1.827762 -170.153992 -0.706587 0.000000 -0.707626
-171.182053 1.739762 -169.956848 -0.706587 -0.000000 -0.707626
-170.915283 1.439762 -170.223236 -0.706639 -0.000000 -0.707574
-170.984619 1.527762 -170.153992 -0.706639 -0.000000 -0.707574
-170.984619 1.739762 -170.153992 -0.706639 -0.000000 -0.707574
-170.915283 1.439762 -170.223236 -0.706595 0.000071 -0.707619
-171.195496 1.527762 -169.943420 -0.706595 0.000071 -0.707619
-170.984619 1.527762 -170.153992 -0.706595 0.000071 -0.707619
-170.915283 1.439762 -170.223236 -0.706606 -0.000000 -0.707608
-171.195496 1.439762 -169.943420 -0.706606 -0.000000 -0.707608
-171.195496 1.527762 -169.943420 -0.706606 -0.000000 -0.707608
-170.567841 1.439762 -170.570175 -0.706562 0.000000 -0.707652
-170.637192 2.121762 -170.500931 -0.706562 0.000000 -0.707652
-170.567841 2.121762 -170.570175 -0.706562 0.000000 -0.707652
-170.637192 1.527762 -170.500931 -0.706562 -0.000000 -0.707652
-170.567841 1.439762 -170.570175 -0.706611 -0.000078 -0.707602
-170.855133 1.527762 -170.283295 -0.706611 -0.000078 -0.707602
-170.637192 1.527762 -170.500931 -0.706611 -0.000078 -0.707602
-170.567841 1.439762 -170.570175 -0.706599 -0.000000 -0.707614
-170.855133 1.439762 -170.283295 -0.706599 -0.000000 -0.707614
-170.855133 1.527762 -170.283295 -0.706599 -0.000000 -0.707614
-170.100113 2.033762 -171.037247 -0.706611 0.000000 -0.707602
-170.503448 2.121762 -170.634476 -0.706611 0.000000 -0.707602
-170.100113 2.121762 -171.037247 -0.706611 0.000000 -0.707602
-170.503448 2.033762 -170.634476 -0.706611 -0.000000 -0.707602
-170.267105 2.033762 -170.870483 0.000000 -1.000000 0.000000
-170.503448 2.033762 -170.634476 0.000000 -1.000000 0.000000
-170.100113 2.033762 -171.037247 0.000000 -1.000000 0.000000
-170.267105 1.439762 -170.870483 -0.706562 0.000000 -0.707651
-170.336456 2.033762 -170.801239 -0.706562 0.000000 -0.707651
-170.267105 2.033762 -170.870483 -0.706562 0.000000 -0.707651
-170.336456 2.033762 -170.801239 0.000000 1.000000 0.000000
-170.503448 2.033762 -170.634476 0.000000 1.000000 0.000000
-170.267105 2.033762 -170.870483 0.000000 1.000000 0.000000
-170.336456 1.439762 -170.801239 -0.706562 -0.000000 -0.707651
-169.964966 1.439762 -171.172211 -0.706717 0.000000 -0.707496
-170.034302 2.121762 -171.102951 -0.706717 0.000000 -0.707496
-169.964966 2.121762 -171.172211 -0.706717 0.000000 -0.707496
-170.034302 1.439762 -171.102951 -0.706717 -0.000000 -0.707496
-169.495819 2.033762 -171.640686 -0.706611 0.000000 -0.707602
-169.899155 2.121762 -171.237915 -0.706611 0.000000 -0.707602
-169.495819 2.121762 -171.640686 -0.706611 0.000000 -0.707602
-169.899155 2.033762 -171.237915 -0.706611 -0.000000 -0.707602
-169.662811 2.033762 -171.473923 0.000000 -1.000000 0.000000
-169.899155 2.033762 -171.237915 0.000000 -1.000000 0.000000
-169.495819 2.033762 -171.640686 0.000000 -1.000000 0.000000
-169.662811 1.439762 -171.473923 -0.706562 0.000000 -0.707651
-169.732162 2.033762 -171.404678 -0.706562 0.000000 -0.707651
-169.662811 2.033762 -171.473923 -0.706562 0.000000 -0.707651
-169.732162 2.033762 -171.404678 0.000000 1.000000 0.000000
-169.899155 2.033762 -171.237915 0.000000 1.000000 0.000000
-169.662811 2.033762 -171.473923 0.000000 1.000000 0.000000
-169.732162 1.439762 -171.404678 -0.706562 -0.000000 -0.707651
3 0 1 2
3 3 4 5
3 6 7 8
3 0 9 1
3 0 10 9
3 11 12 13
3 11 14 12
3 15 16 17
3 18 19 20
3 21 22 23
3 24 25 26
3 24 27 25
3 28 29 30
3 31 32 33
3 34 35 36
3 34 37 35
3 38 39 40
3 41 42 43
3 44 45 46
3 41 47 42
3 48 49 50
3 48 51 49
3 52 53 54
3 52 55 53
3 56 57 58
3 59 60 61
3 62 63 64
3 59 65 60
